<svg width="207" height="173" viewBox="0 0 207 173" fill="none" xmlns="http://www.w3.org/2000/svg">
<path d="M188.441 149.154H19.107C9.37902 138.363 -7.15848 110.507 4.51505 85.4175C16.1886 60.3275 44.6711 58.7763 57.4531 61.1369C73.7418 44.1629 114.141 15.3835 151.113 27.4138C184 38.1149 204.6 61.8678 206.426 96.2088C207.585 118.001 194.775 139.599 188.441 149.154Z" fill="#EEEDF2"/>
<path d="M19.7554 148.976H188.824" stroke="#4E4693" stroke-linecap="round"/>
<path d="M79.9003 125.706C77.0912 122.466 73.5331 119.675 72.4095 115.586C71.5896 112.598 72.2374 109.439 72.5563 106.36C72.8752 103.282 72.7638 99.8747 70.7697 97.5089C69.1247 95.5577 66.5283 94.7085 64.0331 94.1726C61.5379 93.6368 58.9313 93.2981 56.7144 92.0293C53.1159 89.9669 53.8346 86.4637 51.9011 83.3903C49.7349 79.9427 44.6888 75.5398 40.3664 77.8297C35.791 80.2561 36.5148 87.6213 39.5566 90.8717C41.5761 93.0302 44.1624 95.0977 44.461 98.0397C44.9064 102.463 39.835 106.446 41.2269 110.672C42.2594 113.791 46.192 114.863 48.1406 117.512C50.0639 120.135 49.6742 123.805 48.5455 126.853C47.4118 129.902 45.6302 132.717 44.9267 135.887C43.4842 142.377 48.586 146.861 54.3964 148.312C59.736 149.641 71.2505 149.015 71.2505 149.015C75.3603 147.579 79.9154 143.975 82.1778 140.032C83.8835 137.054 84.1214 133.283 82.8004 130.114C82.1171 128.486 81.0745 127.056 79.9003 125.706Z" fill="#7FC128"/>
<path d="M67.2875 149.045C67.1862 149.045 67.0952 148.964 67.0901 148.858C64.9795 115.611 45.5188 85.2407 45.3214 84.9374C45.2607 84.8464 45.286 84.7251 45.3822 84.6644C45.4733 84.6037 45.5947 84.629 45.6555 84.7251C45.8529 85.0284 65.3692 115.49 67.4899 148.833C67.495 148.939 67.414 149.035 67.3077 149.04C67.2976 149.045 67.2925 149.045 67.2875 149.045Z" fill="#413A7B"/>
<path d="M27.9763 125.746C28.28 125.489 28.7203 125.347 29.2872 125.332C29.3277 125.332 29.3732 125.332 29.4137 125.332C31.2409 125.332 33.073 126.495 34.8597 128.785C36.2161 130.529 37.365 132.48 38.3469 134.709C37.7244 134.072 36.9804 133.481 36.1452 132.96C35.0014 132.242 33.7563 131.666 32.5568 131.105C31.6204 130.67 30.6537 130.22 29.7478 129.71C29.0088 129.295 28.199 128.764 27.7637 127.991C27.3791 127.303 27.3538 126.277 27.9763 125.746ZM24.9497 138.591C25.1116 138.227 25.4507 137.914 25.9569 137.656C25.9923 137.636 26.0328 137.621 26.0682 137.6C27.7233 136.817 29.8743 137.085 32.4707 138.394C34.4446 139.39 36.3173 140.664 38.1647 142.261C37.3296 141.953 36.4034 141.735 35.4265 141.619C34.0802 141.457 32.7137 141.468 31.3876 141.478C30.3551 141.483 29.2872 141.493 28.2496 141.417C27.4044 141.356 26.4478 141.225 25.724 140.709C25.0762 140.254 24.6156 139.334 24.9497 138.591Z" fill="#7FC128"/>
<path d="M29.1609 146.275C29.0698 146.017 29.09 145.704 29.2216 145.34C29.2317 145.314 29.2419 145.284 29.252 145.259C29.7075 144.096 30.902 143.222 32.8101 142.661C34.2576 142.231 35.7861 141.988 37.4564 141.917C36.8946 142.155 36.3327 142.479 35.7912 142.883C35.0472 143.434 34.369 144.076 33.7161 144.703C33.2049 145.188 32.6785 145.694 32.1268 146.143C31.6814 146.507 31.1399 146.892 30.5376 146.977C30.0061 147.043 29.3482 146.801 29.1609 146.275Z" fill="#7FC128"/>
<path d="M44.2533 149.212C44.1471 149.212 44.0559 149.126 44.0559 149.015C44.0559 148.894 43.8181 136.954 29.368 126.919C29.2769 126.859 29.2567 126.732 29.3174 126.647C29.3782 126.556 29.5047 126.535 29.5907 126.596C44.223 136.757 44.4507 148.894 44.4507 149.015C44.4558 149.121 44.3647 149.212 44.2533 149.212C44.2584 149.212 44.2584 149.212 44.2533 149.212Z" fill="#413A7B"/>
<path d="M44.2585 149.212C44.1825 149.212 44.1117 149.171 44.0813 149.101C44.0358 149.005 39.4654 139.547 27.4904 139.547C27.379 139.547 27.293 139.461 27.293 139.349C27.293 139.238 27.379 139.152 27.4904 139.152C39.7235 139.152 44.3901 148.838 44.4356 148.934C44.4812 149.035 44.4407 149.151 44.3394 149.197C44.3141 149.202 44.2838 149.212 44.2585 149.212Z" fill="#413A7B"/>
<path d="M30.2642 145.79C30.2035 145.79 30.1478 145.765 30.1073 145.709C30.0415 145.623 30.0567 145.497 30.1478 145.431C35.1028 141.695 37.507 141.827 37.6082 141.832C37.7145 141.842 37.8005 141.933 37.7904 142.044C37.7803 142.15 37.6892 142.241 37.5778 142.226C37.5525 142.226 35.1939 142.125 30.3857 145.744C30.3452 145.78 30.3047 145.79 30.2642 145.79Z" fill="#413A7B"/>
<path opacity="0.77" d="M159.164 130.108C158.804 137.247 151.027 149.725 143.88 149.367C136.732 149.008 132.919 135.943 133.283 128.805C133.642 121.667 141.255 85.9415 148.402 86.305C155.544 86.6636 159.523 122.97 159.164 130.108Z" fill="#7FC128"/>
<path d="M144.452 148.984C144.447 148.984 144.443 148.984 144.443 148.984C144.341 148.979 144.258 148.887 144.268 148.785L147.873 90.9331C147.878 90.8314 147.96 90.7441 148.072 90.7587C148.174 90.7635 148.256 90.8556 148.247 90.9573L144.641 148.809C144.632 148.906 144.549 148.984 144.452 148.984Z" fill="#413A7B"/>
<path opacity="0.77" d="M142.802 128.621C141.177 132.192 139.935 135.938 139.188 139.844C138.809 141.821 138.566 143.968 139.464 145.776C140.444 147.748 142.618 148.897 144.792 149.255C150.105 150.127 155.418 146.876 158.533 142.49C161.648 138.104 162.997 132.74 164.234 127.511C165.209 123.392 166.165 119.21 168.004 115.372C168.79 113.724 173.404 107.371 171.221 105.723C168.237 103.383 159.6 105.927 154.069 111.965C149.508 116.927 145.587 122.515 142.802 128.621Z" fill="#7FC128"/>
<path d="M144.792 149.439C144.777 149.439 144.763 149.439 144.743 149.434C144.642 149.41 144.583 149.304 144.608 149.207C144.671 148.955 151.216 124.051 166.563 109.871C166.641 109.803 166.757 109.803 166.83 109.881C166.903 109.958 166.898 110.075 166.82 110.147C151.551 124.249 145.039 149.052 144.976 149.299C144.957 149.386 144.879 149.439 144.792 149.439Z" fill="#413A7B"/>
<path opacity="0.77" d="M180.372 122.742C179.824 123.726 178.795 124.395 177.859 124.918C176.709 125.568 175.481 126.135 174.292 126.687C172.769 127.395 171.197 128.126 169.741 129.037C168.683 129.701 167.742 130.453 166.951 131.257C168.198 128.427 169.659 125.955 171.376 123.746C173.637 120.838 175.957 119.365 178.281 119.365C178.334 119.365 178.387 119.365 178.441 119.37C179.159 119.389 179.717 119.568 180.1 119.898C180.891 120.571 180.857 121.87 180.372 122.742ZM182.963 138.865C182.046 139.519 180.828 139.684 179.761 139.762C178.441 139.854 177.087 139.844 175.782 139.839C174.103 139.83 172.366 139.815 170.663 140.019C169.421 140.169 168.247 140.445 167.189 140.833C169.528 138.807 171.905 137.193 174.404 135.933C177.694 134.271 180.421 133.932 182.521 134.925C182.57 134.95 182.618 134.974 182.667 134.998C183.307 135.323 183.734 135.72 183.943 136.185C184.36 137.126 183.773 138.289 182.963 138.865Z" fill="#7FC128"/>
<path opacity="0.77" d="M176.849 146.803C176.087 146.696 175.403 146.212 174.836 145.746C174.137 145.175 173.467 144.54 172.822 143.919C171.992 143.13 171.133 142.311 170.192 141.613C169.503 141.104 168.79 140.692 168.082 140.392C170.197 140.479 172.133 140.789 173.972 141.332C176.388 142.044 177.902 143.154 178.479 144.627C178.494 144.661 178.504 144.695 178.518 144.729C178.683 145.189 178.707 145.587 178.596 145.916C178.363 146.59 177.524 146.895 176.849 146.803Z" fill="#7FC128"/>
<path d="M159.46 149.585C159.363 149.575 159.271 149.502 159.271 149.396C159.271 149.24 159.557 133.888 178.082 121.022C178.169 120.964 178.286 120.983 178.344 121.07C178.402 121.158 178.383 121.274 178.296 121.332C159.93 134.087 159.644 149.245 159.644 149.396C159.649 149.497 159.566 149.585 159.46 149.585Z" fill="#413A7B"/>
<path d="M159.46 149.585C159.43 149.585 159.406 149.58 159.377 149.565C159.28 149.522 159.241 149.41 159.285 149.313C159.343 149.192 165.243 136.946 180.716 136.946C180.823 136.946 180.906 137.029 180.906 137.135C180.906 137.242 180.823 137.324 180.716 137.324C165.491 137.324 159.683 149.352 159.629 149.473C159.6 149.541 159.532 149.585 159.46 149.585Z" fill="#413A7B"/>
<path d="M177.199 145.247C177.16 145.247 177.121 145.233 177.087 145.209C170.964 140.595 167.951 140.731 167.927 140.736C167.82 140.745 167.733 140.663 167.723 140.561C167.718 140.459 167.796 140.367 167.898 140.358C168.024 140.343 171.047 140.188 177.315 144.908C177.398 144.971 177.417 145.087 177.354 145.175C177.315 145.218 177.257 145.247 177.199 145.247Z" fill="#413A7B"/>
<path d="M68.8838 10.1575C68.8838 4.54766 73.4346 0 79.0483 0H129.193C134.807 0 139.357 4.54766 139.357 10.1575V138.819C139.357 144.429 134.807 148.976 129.193 148.976H79.0483C73.4346 148.976 68.8838 144.429 68.8838 138.819V10.1575Z" fill="#7161BA"/>
<path d="M70.6348 10.8347C70.6348 6.34686 74.2754 2.70874 78.7663 2.70874H84.7143C86.6467 2.70874 88.2133 4.27424 88.2133 6.20538C88.2133 8.13651 89.7799 9.70201 91.7124 9.70201H115.965C117.898 9.70201 119.464 8.13651 119.464 6.20538C119.464 4.27424 121.031 2.70874 122.963 2.70874H128.911C133.402 2.70874 137.043 6.34687 137.043 10.8347V138.819C137.043 143.307 133.402 146.945 128.911 146.945H78.7663C74.2754 146.945 70.6348 143.307 70.6348 138.819V10.8347Z" fill="#F5F5F7"/>
<path d="M88.9545 34.5529H78.0889V23.7007H88.9545V34.5529ZM78.34 34.3021H88.7034V23.9515H78.34V34.3021Z" fill="#413A7B"/>
<path d="M83.8795 32.1603L80.2886 29.3438L80.9088 28.5562L83.8117 30.831L90.0971 24.7842L90.7927 25.5065L83.8795 32.1603Z" fill="#413A7B"/>
<path d="M128.51 26.8359H93.924C93.698 26.8359 93.5146 26.6528 93.5146 26.4271C93.5146 26.2014 93.698 26.0183 93.924 26.0183H128.51C128.736 26.0183 128.919 26.2014 128.919 26.4271C128.919 26.6528 128.736 26.8359 128.51 26.8359ZM128.51 28.6367H93.924C93.698 28.6367 93.5146 28.4536 93.5146 28.2279C93.5146 28.0022 93.698 27.8191 93.924 27.8191H128.51C128.736 27.8191 128.919 28.0022 128.919 28.2279C128.919 28.4536 128.736 28.6367 128.51 28.6367ZM128.51 30.4349H93.924C93.698 30.4349 93.5146 30.2519 93.5146 30.0261C93.5146 29.8004 93.698 29.6173 93.924 29.6173H128.51C128.736 29.6173 128.919 29.8004 128.919 30.0261C128.919 30.2519 128.736 30.4349 128.51 30.4349ZM128.51 32.2357H93.924C93.698 32.2357 93.5146 32.0526 93.5146 31.8269C93.5146 31.6012 93.698 31.4181 93.924 31.4181H128.51C128.736 31.4181 128.919 31.6012 128.919 31.8269C128.919 32.0526 128.736 32.2357 128.51 32.2357Z" fill="#413A7B"/>
<path d="M88.9545 51.62H78.0889V40.7678H88.9545V51.62ZM78.34 51.3692H88.7034V41.0186H78.34V51.3692Z" fill="#413A7B"/>
<path d="M83.8795 49.2276L80.2886 46.4111L80.9088 45.6236L83.8117 47.8984L90.0971 41.8515L90.7927 42.5738L83.8795 49.2276Z" fill="#413A7B"/>
<path d="M128.51 43.9028H93.924C93.698 43.9028 93.5146 43.7197 93.5146 43.494C93.5146 43.2683 93.698 43.0852 93.924 43.0852H128.51C128.736 43.0852 128.919 43.2683 128.919 43.494C128.919 43.7197 128.736 43.9028 128.51 43.9028ZM128.51 45.7036H93.924C93.698 45.7036 93.5146 45.5205 93.5146 45.2947C93.5146 45.069 93.698 44.8859 93.924 44.8859H128.51C128.736 44.8859 128.919 45.069 128.919 45.2947C128.919 45.5205 128.736 45.7036 128.51 45.7036ZM128.51 47.5018H93.924C93.698 47.5018 93.5146 47.3187 93.5146 47.093C93.5146 46.8673 93.698 46.6842 93.924 46.6842H128.51C128.736 46.6842 128.919 46.8673 128.919 47.093C128.919 47.3187 128.736 47.5018 128.51 47.5018ZM128.51 49.3026H93.924C93.698 49.3026 93.5146 49.1195 93.5146 48.8938C93.5146 48.668 93.698 48.485 93.924 48.485H128.51C128.736 48.485 128.919 48.668 128.919 48.8938C128.919 49.1195 128.736 49.3026 128.51 49.3026Z" fill="#413A7B"/>
<path d="M88.9545 68.6872H78.0889V57.835H88.9545V68.6872ZM78.34 68.4364H88.7034V58.0858H78.34V68.4364Z" fill="#413A7B"/>
<path d="M83.8795 66.2946L80.2886 63.4781L80.9088 62.6906L83.8117 64.9653L90.0971 58.9185L90.7927 59.6408L83.8795 66.2946Z" fill="#413A7B"/>
<path d="M128.51 60.9698H93.924C93.698 60.9698 93.5146 60.7867 93.5146 60.561C93.5146 60.3352 93.698 60.1522 93.924 60.1522H128.51C128.736 60.1522 128.919 60.3352 128.919 60.561C128.919 60.7867 128.736 60.9698 128.51 60.9698ZM128.51 62.7705H93.924C93.698 62.7705 93.5146 62.5874 93.5146 62.3617C93.5146 62.136 93.698 61.9529 93.924 61.9529H128.51C128.736 61.9529 128.919 62.136 128.919 62.3617C128.919 62.5874 128.736 62.7705 128.51 62.7705ZM128.51 64.5688H93.924C93.698 64.5688 93.5146 64.3857 93.5146 64.16C93.5146 63.9342 93.698 63.7512 93.924 63.7512H128.51C128.736 63.7512 128.919 63.9342 128.919 64.16C128.919 64.3857 128.736 64.5688 128.51 64.5688ZM128.51 66.3695H93.924C93.698 66.3695 93.5146 66.1864 93.5146 65.9607C93.5146 65.735 93.698 65.5519 93.924 65.5519H128.51C128.736 65.5519 128.919 65.735 128.919 65.9607C128.919 66.1864 128.736 66.3695 128.51 66.3695Z" fill="#413A7B"/>
<path d="M88.9545 85.7542H78.0889V74.902H88.9545V85.7542ZM78.34 85.5034H88.7034V75.1528H78.34V85.5034Z" fill="#413A7B"/>
<path d="M83.8795 83.3616L80.2886 80.5451L80.9088 79.7576L83.8117 82.0324L90.0971 75.9855L90.7927 76.7078L83.8795 83.3616Z" fill="#413A7B"/>
<path d="M128.51 78.037H93.924C93.698 78.037 93.5146 77.854 93.5146 77.6282C93.5146 77.4025 93.698 77.2194 93.924 77.2194H128.51C128.736 77.2194 128.919 77.4025 128.919 77.6282C128.919 77.854 128.736 78.037 128.51 78.037ZM128.51 79.8378H93.924C93.698 79.8378 93.5146 79.6547 93.5146 79.429C93.5146 79.2033 93.698 79.0202 93.924 79.0202H128.51C128.736 79.0202 128.919 79.2033 128.919 79.429C128.919 79.6547 128.736 79.8378 128.51 79.8378ZM128.51 81.6361H93.924C93.698 81.6361 93.5146 81.453 93.5146 81.2272C93.5146 81.0015 93.698 80.8184 93.924 80.8184H128.51C128.736 80.8184 128.919 81.0015 128.919 81.2272C128.919 81.453 128.736 81.6361 128.51 81.6361ZM128.51 83.4368H93.924C93.698 83.4368 93.5146 83.2537 93.5146 83.028C93.5146 82.8023 93.698 82.6192 93.924 82.6192H128.51C128.736 82.6192 128.919 82.8023 128.919 83.028C128.919 83.2537 128.736 83.4368 128.51 83.4368Z" fill="#413A7B"/>
<path d="M148.447 140.992C148.447 140.992 150.616 147.362 151.062 148.417C151.43 149.288 152.219 149.872 152.968 150.454C153.207 150.64 153.445 151.06 153.648 151.414C153.81 151.698 153.8 152.034 153.67 152.335C151.399 157.586 145.251 159.41 145.131 159C144.917 158.26 145.892 156.849 147.196 156.187C148.509 155.522 149.321 154.159 149.458 152.699C149.567 151.537 149.372 150.366 148.895 149.301L146.695 144.525L148.447 140.992ZM139.345 148.317L137.471 154.892C136.898 156.902 137.07 159.054 137.951 160.95C137.951 160.951 137.952 160.951 137.952 160.951C138.447 162.011 137.885 163.26 136.759 163.592C133.119 164.664 126.065 166.696 125.771 166.418C124.271 165.004 128.551 163.045 131.752 160.913C133.91 159.475 135.104 152.289 135.595 146.755L138.846 147.762C139.097 147.847 139.287 148.058 139.345 148.317Z" fill="#FAD6BE"/>
<path d="M132.347 162.844C130.842 163.247 129.213 163.315 127.718 163.416C127.547 163.427 127.381 163.484 127.239 163.581C125.754 164.602 124.974 165.668 125.769 166.418C126.089 166.719 134.379 164.298 137.614 163.339C138.29 163.139 138.622 162.389 138.325 161.752L137.783 160.592C136.067 161.551 134.254 162.333 132.347 162.844ZM140.643 74.0575C144.545 74.808 147.644 79.5045 146.674 84.5052C146.117 87.3786 142.837 97.5944 139.407 105.623C138.09 108.705 138.359 112.295 140.356 114.99C140.682 115.429 140.96 115.88 141.176 116.334C142.291 118.677 146.322 132.379 148.628 141.501C148.34 142.662 147.554 144.112 146.644 144.581C142.133 136.695 134.883 122.353 133.697 119.861C133.039 118.477 132.324 116.879 131.82 115.387C128.861 111.004 130.781 87.5245 131.68 82.8851C132.651 77.8849 136.741 73.3077 140.643 74.0575Z" fill="#27234A"/>
<path d="M147.202 46.1492C147.44 41.8557 144.923 38.2261 141.58 38.0425C138.238 37.8588 135.335 41.1904 135.097 45.484C134.859 49.7775 137.376 53.407 140.719 53.5907C144.061 53.7744 146.964 50.4427 147.202 46.1492Z" fill="#27234A"/>
<path d="M142.541 46.6986C142.875 42.4007 146.574 38.976 150.903 38.9675C154.743 38.9596 157.92 41.4772 158.972 44.8804C159.34 46.0731 160.449 46.8971 161.701 46.9474C162.221 46.9683 162.753 47.0452 163.291 47.186C166.418 48.0049 168.726 50.8002 168.883 54.0162C169.023 56.9166 167.524 59.4297 165.264 60.7869C164.301 61.3654 163.714 62.3805 163.499 63.4804C162.502 68.57 157.59 72.0789 152.258 71.1996C147.697 70.4475 144.233 66.4855 144.096 61.8846C144.012 59.0622 145.123 56.5389 146.932 54.7191C144.106 53.1928 142.274 50.121 142.541 46.6986ZM141.705 35.492C141.705 35.492 138.182 37.439 138.437 40.3366C138.437 40.3366 136.689 38.954 136.522 34.5142C136.407 31.4373 141.705 35.492 141.705 35.492Z" fill="#1A1731"/>
<path d="M138.568 52.8913C138.488 53.899 138.266 55.0147 137.665 56.1203C137.349 56.6694 136.938 57.1942 136.44 57.6341C135.935 58.0656 135.369 58.3964 134.798 58.6249C133.651 59.0671 132.561 59.1458 131.58 59.109C130.591 59.0711 129.678 58.9156 128.807 58.7092C127.067 58.2873 125.478 57.6698 123.943 56.9923C122.408 56.3125 120.935 55.5599 119.502 54.7484C116.639 53.1293 113.91 51.3497 111.256 49.4762C108.602 47.6009 106.033 45.6318 103.601 43.4524C103.335 43.2131 103.313 42.8037 103.553 42.5379C103.777 42.2902 104.149 42.2546 104.415 42.4441L104.423 42.4503C105.707 43.3738 107.049 44.243 108.402 45.0861C109.754 45.9321 111.116 46.7611 112.497 47.5546C115.258 49.1419 118.076 50.6241 120.948 51.9118C122.387 52.5468 123.828 53.1559 125.281 53.6671C126.73 54.1794 128.198 54.6047 129.609 54.8377C130.313 54.957 131.001 55.0181 131.622 54.9977C132.245 54.9847 132.785 54.8648 133.129 54.6918C133.472 54.5108 133.617 54.3435 133.772 54.0387C133.913 53.7175 134.022 53.23 134.032 52.6418C134.053 51.3921 135.089 50.3962 136.344 50.4177C137.599 50.4392 138.599 51.4701 138.577 52.7199C138.577 52.7651 138.575 52.8098 138.571 52.8539L138.568 52.8913Z" fill="#FFE3CA"/>
<path d="M136.098 67.6975C134.962 63.5343 132.701 54.726 133.092 51.9092C133.343 50.1047 134.941 48.8001 136.768 48.9002L148.62 49.5511C150.585 49.6591 152.107 51.299 152.056 53.2579C151.966 56.6815 149.954 64.3741 148.839 68.3971L136.098 67.6975Z" fill="#7161BA"/>
<path d="M135.586 148.195C135.406 148.071 135.314 147.855 135.332 147.638C136.064 138.972 137.206 127.937 137.516 125.827C137.551 125.585 137.594 125.348 137.642 125.115C136.343 114.751 137.282 92.6762 137.31 88.803C137.348 83.7101 140.738 78.1472 144.711 78.1766C148.684 78.2055 152.76 82.5265 153.775 87.2502C154.444 90.3672 150.292 106.532 146.118 118.184C145.239 120.636 144.978 123.252 145.208 125.846C145.367 127.64 145.343 129.479 145.138 130.873C144.834 132.95 142.016 141.318 139.412 148.473C139.336 148.68 139.158 148.837 138.94 148.873C137.787 149.06 136.604 148.891 135.586 148.195Z" fill="#27234A"/>
<path d="M149.907 73.6548C149.388 71.9068 149.306 70.0627 149.663 68.2757C150.493 64.126 151.974 56.3039 152.063 52.9539C152.111 51.1629 150.718 49.6672 148.921 49.5682L147.164 49.4715C146.409 50.9809 144.925 52.0972 142.72 51.9756C140.518 51.8546 139.166 50.5827 138.581 48.9999L136.93 48.9094C138.512 52.8312 137.588 57.8393 134.34 60.6131C134.801 62.6625 135.171 64.7198 135.44 66.3858C135.805 68.6421 135.461 70.9533 134.463 73.0112C132.747 76.5479 131.226 82.2872 131.456 84.6074C143.728 88.8108 152.695 83.0568 152.695 83.0568L149.907 73.6548Z" fill="#7161BA"/>
<path d="M140.905 49.9424L146.312 49.6755L144.936 43.7236L141.435 43.9611L140.905 49.9424Z" fill="#FFE3CA"/>
<path d="M141.435 43.9611L144.936 43.7236L145.366 45.5818C144.539 46.4131 143.434 48.2459 142.168 48.1764C141.767 48.1543 141.407 48.0214 141.09 47.7958L141.435 43.9611Z" fill="#FAD6BE"/>
<path d="M141.157 46.7864C142.338 46.8509 143.648 46.3329 145.492 44.8993C146.55 44.076 147.383 42.5853 147.441 41.5498L147.758 35.8247L138.906 35.3384C138.906 35.3384 138.073 38.3417 138.551 41.3938C138.91 43.6835 140.229 46.7361 141.157 46.7864Z" fill="#FFE3CA"/>
<path d="M146 40.385C145.939 41.5018 146.425 42.4372 147.088 42.4734C147.75 42.5096 148.562 41.0857 148.624 39.9688C148.685 38.8519 147.974 38.4646 147.312 38.4284C146.65 38.3916 146.062 39.2675 146 40.385Z" fill="#FFE3CA"/>
<path d="M148.811 36.5788C148.91 34.7912 147.534 33.2621 145.739 33.1642L142.751 33.0014C141.897 32.955 141.081 32.6864 140.376 32.2362C139.355 31.5825 138.012 31.708 137.239 32.64C136.403 33.6472 135.989 35.0349 137.888 36.4453C138.832 37.1465 140.305 36.5081 141.242 36.8711C141.301 36.8717 141.354 36.8655 141.415 36.8689L144.048 37.0136C144.963 37.064 145.623 37.8472 145.598 38.7593C145.583 39.3361 146.032 39.8242 146.614 39.8564L146.731 39.8627L147.228 38.5405L148.588 40.595L148.811 36.5788Z" fill="#27234A"/>
<path d="M104.117 39.8426C104.117 39.8426 105.536 42.6124 104.83 43.3238C104.124 44.0352 103.52 44.3842 102.441 43.4002C101.363 42.4162 100.355 40.5551 99.9742 39.3184C99.5937 38.0816 99.8351 35.741 100.027 35.508C100.726 34.6575 101.179 36.9698 101.453 38.0788C101.727 39.1877 102.148 40.4132 102.646 40.131C103.145 39.8488 102.459 37.7643 102.923 37.2526C103.387 36.7413 104.117 39.8426 104.117 39.8426ZM129.784 75.5334C129.784 75.5334 132.889 75.202 133.305 76.1124C133.721 77.0223 133.832 77.7094 132.525 78.3614C131.217 79.0135 129.111 79.2877 127.815 79.2001C126.519 79.113 124.409 78.0532 124.259 77.7914C123.71 76.838 126.041 77.2417 127.179 77.382C128.317 77.5228 129.616 77.5692 129.529 77.0042C129.443 76.4398 127.242 76.3335 126.928 75.7194C126.614 75.1058 129.784 75.5334 129.784 75.5334Z" fill="#FFE3CA"/>
<path d="M139.573 35.2743C139.797 36.5987 139.319 37.2898 143.512 39.5676C147.704 41.8455 149.115 41.0481 150.338 43.3198C150.338 43.3198 149.952 39.6468 147.643 38.2669C145.335 36.8865 141.256 35.8438 140.093 32.8777C140.093 32.8771 139.419 34.3695 139.573 35.2743Z" fill="#27234A"/>
<path d="M151.595 52.2028C152.201 53.1008 152.684 53.9219 153.175 54.8047C153.657 55.6767 154.12 56.5589 154.541 57.4654C155.38 59.279 156.113 61.1587 156.653 63.1397C157.176 65.1223 157.51 67.2187 157.372 69.4241C157.294 70.524 157.084 71.6516 156.678 72.7425C156.283 73.8356 155.647 74.8711 154.853 75.7346C154.061 76.6032 153.121 77.2954 152.142 77.8168C151.161 78.3405 150.142 78.7041 149.127 78.9727C148.109 79.2391 147.093 79.3872 146.084 79.4998C145.076 79.5801 144.073 79.6258 143.083 79.5993C139.116 79.5342 135.292 78.8393 131.555 77.931C131.206 77.8462 130.992 77.4956 131.077 77.1478C131.155 76.8283 131.459 76.6225 131.779 76.657L131.786 76.6581C135.55 77.0613 139.335 77.3356 142.999 77.0438C144.824 76.8894 146.617 76.5913 148.243 76.0383C149.859 75.4756 151.279 74.6177 152.159 73.455C153.053 72.3065 153.443 70.8532 153.459 69.2596C153.468 67.6631 153.102 65.9757 152.573 64.317C152.05 62.6511 151.339 61.0026 150.52 59.3983C150.114 58.5947 149.69 57.7956 149.237 57.0135C148.789 56.245 148.294 55.4346 147.843 54.7532L147.813 54.7091C147.122 53.6663 147.41 52.2638 148.458 51.5756C149.5 50.8919 150.9 51.1736 151.595 52.2028Z" fill="#FFE3CA"/>
<path d="M140.387 35.5642C140.387 35.5642 139.979 39.961 135.996 41.8645C135.996 41.8645 137.884 38.6281 137.889 36.4447C137.893 34.2613 140.725 34.0735 140.387 35.5642ZM155.009 153.942C155.281 153.663 155.31 153.23 155.076 152.92C154.884 152.666 154.375 151.971 153.992 151.449C153.826 151.222 153.487 151.254 153.352 151.501C151.819 154.287 149.4 156.393 146.385 156.639C145.379 157.239 144.678 158.681 144.848 159.267C144.888 159.404 146.215 159.496 147.655 158.777C154.049 155.584 155.009 153.942 155.009 153.942Z" fill="#27234A"/>
<path d="M53.9756 161.166H76.3374" stroke="#4E4693" stroke-linecap="round"/>
<path d="M140.431 161.166L153.984 161.166" stroke="#4E4693" stroke-linecap="round"/>
<path d="M87.5757 172L101.128 172" stroke="#4E4693" stroke-linecap="round"/>
<path d="M102.483 161.166L109.26 161.166" stroke="#4E4693" stroke-linecap="round"/>
</svg>
