<svg width="7" height="7" viewBox="0 0 7 7" fill="none" xmlns="http://www.w3.org/2000/svg">
<path d="M1.54234 6.388C1.39834 6.452 1.27434 6.46 1.17034 6.412C1.06634 6.356 0.990344 6.272 0.942344 6.16C0.902344 6.048 0.902344 5.936 0.942344 5.824C0.982344 5.712 1.07034 5.624 1.20634 5.56L5.82634 3.556L1.20634 1.552C1.07034 1.488 0.982344 1.4 0.942344 1.288C0.902344 1.176 0.902344 1.064 0.942344 0.952C0.990344 0.84 1.06634 0.756 1.17034 0.7C1.27434 0.644 1.39834 0.648 1.54234 0.711999L6.51034 2.908C6.82234 3.036 6.97834 3.248 6.97834 3.544C6.97834 3.856 6.82234 4.076 6.51034 4.204L1.54234 6.388Z" fill="#7161BA"/>
</svg>
