<svg width="20" height="21" viewBox="0 0 20 21" fill="none" xmlns="http://www.w3.org/2000/svg">
<path fill-rule="evenodd" clip-rule="evenodd" d="M10 20.0836C15.5228 20.0836 20 15.6064 20 10.0836C20 4.56071 15.5228 0.0835571 10 0.0835571C4.47715 0.0835571 0 4.56071 0 10.0836C0 15.6064 4.47715 20.0836 10 20.0836ZM10 5.08356C10.5523 5.08356 11 5.53127 11 6.08356V9.08356H14C14.5523 9.08356 15 9.53127 15 10.0836C15 10.6358 14.5523 11.0836 14 11.0836H11V14.0836C11 14.6358 10.5523 15.0836 10 15.0836C9.44771 15.0836 9 14.6358 9 14.0836V11.0836H6C5.44772 11.0836 5 10.6358 5 10.0836C5 9.53127 5.44772 9.08356 6 9.08356H9V6.08356C9 5.53127 9.44772 5.08356 10 5.08356Z" fill="#7161BA"/>
</svg>
