<svg width="16" height="16" viewBox="0 0 16 16" fill="none" xmlns="http://www.w3.org/2000/svg">
<path d="M12 1.33333H4C3.26362 1.33333 2.66667 1.93029 2.66667 2.66667V13.3333C2.66667 14.0697 3.26362 14.6667 4 14.6667H12C12.7364 14.6667 13.3333 14.0697 13.3333 13.3333V2.66667C13.3333 1.93029 12.7364 1.33333 12 1.33333Z" stroke="#7161BA" stroke-width="2" stroke-linecap="round" stroke-linejoin="round"/>
<path d="M6 14.6667V12H10V14.6667" stroke="#7161BA" stroke-width="2" stroke-linecap="round" stroke-linejoin="round"/>
<path d="M5.33333 4H5.34" stroke="#7161BA" stroke-width="2" stroke-linecap="round" stroke-linejoin="round"/>
<path d="M10.6667 4H10.6733" stroke="#7161BA" stroke-width="2" stroke-linecap="round" stroke-linejoin="round"/>
<path d="M8 4H8.00667" stroke="#7161BA" stroke-width="2" stroke-linecap="round" stroke-linejoin="round"/>
<path d="M8 6.66667H8.00667" stroke="#7161BA" stroke-width="2" stroke-linecap="round" stroke-linejoin="round"/>
<path d="M8 9.33334H8.00667" stroke="#7161BA" stroke-width="2" stroke-linecap="round" stroke-linejoin="round"/>
<path d="M10.6667 6.66667H10.6733" stroke="#7161BA" stroke-width="2" stroke-linecap="round" stroke-linejoin="round"/>
<path d="M10.6667 9.33334H10.6733" stroke="#7161BA" stroke-width="2" stroke-linecap="round" stroke-linejoin="round"/>
<path d="M5.33333 6.66667H5.34" stroke="#7161BA" stroke-width="2" stroke-linecap="round" stroke-linejoin="round"/>
<path d="M5.33333 9.33334H5.34" stroke="#7161BA" stroke-width="2" stroke-linecap="round" stroke-linejoin="round"/>
</svg>
