<svg width="18" height="17" viewBox="0 0 18 17" fill="none" xmlns="http://www.w3.org/2000/svg">
<path d="M7.13322 15.3745C7.50141 15.3745 7.79989 15.076 7.79989 14.7078C7.79989 14.3396 7.50141 14.0411 7.13322 14.0411C6.76503 14.0411 6.46655 14.3396 6.46655 14.7078C6.46655 15.076 6.76503 15.3745 7.13322 15.3745Z" fill="#F5F5F7" stroke="#F5F5F7" stroke-width="2" stroke-linecap="round" stroke-linejoin="round"/>
<path d="M14.4667 15.3745C14.8349 15.3745 15.1334 15.076 15.1334 14.7078C15.1334 14.3396 14.8349 14.0411 14.4667 14.0411C14.0985 14.0411 13.8 14.3396 13.8 14.7078C13.8 15.076 14.0985 15.3745 14.4667 15.3745Z" fill="#F5F5F7" stroke="#F5F5F7" stroke-width="2" stroke-linecap="round" stroke-linejoin="round"/>
<path d="M1.80005 1.37445H4.46672L6.25338 10.3011C6.31434 10.608 6.48132 10.8838 6.72508 11.08C6.96884 11.2762 7.27385 11.3804 7.58672 11.3745H14.0667C14.3796 11.3804 14.6846 11.2762 14.9284 11.08C15.1721 10.8838 15.3391 10.608 15.4 10.3011L16.4667 4.70778H5.13338" stroke="#F5F5F7" stroke-width="2" stroke-linecap="round" stroke-linejoin="round"/>
</svg>
