<svg width="21" height="20" viewBox="0 0 21 20" fill="none" xmlns="http://www.w3.org/2000/svg">
<path d="M13.4167 4.16675C14.5871 4.16675 15.1723 4.16675 15.5927 4.44763C15.7747 4.56923 15.9309 4.72548 16.0525 4.90746C16.3334 5.32784 16.3334 5.91303 16.3334 7.08342V15.0001C16.3334 16.5714 16.3334 17.3571 15.8453 17.8453C15.3571 18.3334 14.5714 18.3334 13.0001 18.3334H8.00008C6.42873 18.3334 5.64306 18.3334 5.1549 17.8453C4.66675 17.3571 4.66675 16.5714 4.66675 15.0001V7.08342C4.66675 5.91303 4.66675 5.32784 4.94763 4.90746C5.06923 4.72548 5.22548 4.56923 5.40746 4.44763C5.82784 4.16675 6.41303 4.16675 7.58342 4.16675" stroke="#A2A1AB" stroke-width="2"/>
<path d="M8 4.16667C8 3.24619 8.74619 2.5 9.66667 2.5H11.3333C12.2538 2.5 13 3.24619 13 4.16667C13 5.08714 12.2538 5.83333 11.3333 5.83333H9.66667C8.74619 5.83333 8 5.08714 8 4.16667Z" stroke="#A2A1AB" stroke-width="2"/>
<path d="M8 10L13 10" stroke="#A2A1AB" stroke-width="2" stroke-linecap="round"/>
<path d="M8 13.3333L11.3333 13.3333" stroke="#A2A1AB" stroke-width="2" stroke-linecap="round"/>
</svg>
