<svg width="16" height="16" viewBox="0 0 16 16" fill="none" xmlns="http://www.w3.org/2000/svg">
<path d="M7.33333 2.66675H2.66667C2.31305 2.66675 1.97391 2.80722 1.72386 3.05727C1.47381 3.30732 1.33333 3.64646 1.33333 4.00008V13.3334C1.33333 13.687 1.47381 14.0262 1.72386 14.2762C1.97391 14.5263 2.31305 14.6667 2.66667 14.6667H12C12.3536 14.6667 12.6928 14.5263 12.9428 14.2762C13.1929 14.0262 13.3333 13.687 13.3333 13.3334V8.66675" stroke="#7161BA" stroke-width="2" stroke-linecap="round" stroke-linejoin="round"/>
<path d="M12.3333 1.66665C12.5985 1.40144 12.9583 1.25244 13.3333 1.25244C13.7084 1.25244 14.0681 1.40144 14.3333 1.66665C14.5985 1.93187 14.7475 2.29158 14.7475 2.66665C14.7475 3.04173 14.5985 3.40144 14.3333 3.66665L8 9.99999L5.33333 10.6667L6 7.99999L12.3333 1.66665Z" stroke="#7161BA" stroke-width="2" stroke-linecap="round" stroke-linejoin="round"/>
</svg>
