<svg width="16" height="13" viewBox="0 0 16 13" fill="none" xmlns="http://www.w3.org/2000/svg">
<path d="M2.96708 7.27214L7.60215 11.6263C7.65399 11.675 7.67991 11.6994 7.7046 11.7174C7.88046 11.8462 8.11946 11.8462 8.29532 11.7174C8.32 11.6994 8.34592 11.675 8.39777 11.6263L13.0328 7.27214C14.337 6.04706 14.4953 4.03107 13.3985 2.61738L13.1923 2.35156C11.8801 0.660385 9.24638 0.944009 8.3244 2.87577C8.19417 3.14864 7.80575 3.14864 7.67551 2.87577C6.75354 0.944009 4.11977 0.660385 2.80766 2.35156L2.60142 2.61738C1.50459 4.03107 1.66296 6.04706 2.96708 7.27214Z" fill="#EE6955" stroke="#EE6955" stroke-width="2"/>
</svg>
