<svg width="24" height="24" viewBox="0 0 24 24" fill="none" xmlns="http://www.w3.org/2000/svg">
<path d="M20.42 4.57996C19.9183 4.07653 19.3222 3.67709 18.6658 3.40455C18.0094 3.132 17.3057 2.9917 16.595 2.9917C15.8843 2.9917 15.1806 3.132 14.5242 3.40455C13.8678 3.67709 13.2717 4.07653 12.77 4.57996L12 5.35996L11.23 4.57996C10.7283 4.07653 10.1322 3.67709 9.47582 3.40455C8.81944 3.132 8.11571 2.9917 7.40499 2.9917C6.69428 2.9917 5.99055 3.132 5.33417 3.40455C4.67779 3.67709 4.08167 4.07653 3.57999 4.57996C1.45999 6.69996 1.32999 10.28 3.99999 13L12 21L20 13C22.67 10.28 22.54 6.69996 20.42 4.57996Z" fill="#EA4C4C" stroke="#EA4C4C" stroke-width="2" stroke-linecap="round" stroke-linejoin="round"/>
</svg>
