<svg width="24" height="24" viewBox="0 0 24 24" fill="none" xmlns="http://www.w3.org/2000/svg">
<path d="M20 10.2222C20 16.4444 12 21.7778 12 21.7778C12 21.7778 4 16.4444 4 10.2222C4 8.1005 4.84285 6.06567 6.34315 4.56537C7.84344 3.06508 9.87827 2.22223 12 2.22223C14.1217 2.22223 16.1566 3.06508 17.6569 4.56537C19.1571 6.06567 20 8.1005 20 10.2222Z" stroke="#7161BA" stroke-width="2" stroke-linecap="round" stroke-linejoin="round"/>
<path d="M12 12.8889C13.4728 12.8889 14.6667 11.695 14.6667 10.2222C14.6667 8.74947 13.4728 7.55556 12 7.55556C10.5272 7.55556 9.33333 8.74947 9.33333 10.2222C9.33333 11.695 10.5272 12.8889 12 12.8889Z" stroke="#7161BA" stroke-width="2" stroke-linecap="round" stroke-linejoin="round"/>
</svg>
