<svg width="16" height="16" viewBox="0 0 16 16" fill="none" xmlns="http://www.w3.org/2000/svg">
<path d="M8 8.66668C8.36819 8.66668 8.66667 8.3682 8.66667 8.00001C8.66667 7.63182 8.36819 7.33334 8 7.33334C7.63181 7.33334 7.33333 7.63182 7.33333 8.00001C7.33333 8.3682 7.63181 8.66668 8 8.66668Z" fill="#F5F5F7" stroke="#F5F5F7" stroke-width="2" stroke-linecap="round" stroke-linejoin="round"/>
<path d="M12.6667 8.66668C13.0349 8.66668 13.3333 8.3682 13.3333 8.00001C13.3333 7.63182 13.0349 7.33334 12.6667 7.33334C12.2985 7.33334 12 7.63182 12 8.00001C12 8.3682 12.2985 8.66668 12.6667 8.66668Z" fill="#F5F5F7" stroke="#F5F5F7" stroke-width="2" stroke-linecap="round" stroke-linejoin="round"/>
<path d="M3.33333 8.66668C3.70152 8.66668 4 8.3682 4 8.00001C4 7.63182 3.70152 7.33334 3.33333 7.33334C2.96514 7.33334 2.66667 7.63182 2.66667 8.00001C2.66667 8.3682 2.96514 8.66668 3.33333 8.66668Z" fill="#F5F5F7" stroke="#F5F5F7" stroke-width="2" stroke-linecap="round" stroke-linejoin="round"/>
</svg>
