<svg width="24" height="24" viewBox="0 0 24 24" fill="none" xmlns="http://www.w3.org/2000/svg">
<path fill-rule="evenodd" clip-rule="evenodd" d="M1 2C1 1.44772 1.44772 1 2 1H10C10.5523 1 11 1.44772 11 2V10C11 10.5523 10.5523 11 10 11H2C1.44772 11 1 10.5523 1 10V2ZM3 3V9H9V3H3Z" fill="#f5f5f7"/>
<path fill-rule="evenodd" clip-rule="evenodd" d="M5 6C5 5.44772 5.44772 5 6 5H6.01C6.56228 5 7.01 5.44772 7.01 6C7.01 6.55228 6.56228 7 6.01 7H6C5.44772 7 5 6.55228 5 6Z" fill="#f5f5f7"/>
<path fill-rule="evenodd" clip-rule="evenodd" d="M13 2C13 1.44772 13.4477 1 14 1H22C22.5523 1 23 1.44772 23 2V10C23 10.5523 22.5523 11 22 11H14C13.4477 11 13 10.5523 13 10V2ZM15 3V9H21V3H15Z" fill="#f5f5f7"/>
<path fill-rule="evenodd" clip-rule="evenodd" d="M17 6C17 5.44772 17.4477 5 18 5H18.01C18.5623 5 19.01 5.44772 19.01 6C19.01 6.55228 18.5623 7 18.01 7H18C17.4477 7 17 6.55228 17 6Z" fill="#f5f5f7"/>
<path fill-rule="evenodd" clip-rule="evenodd" d="M1 14C1 13.4477 1.44772 13 2 13H10C10.5523 13 11 13.4477 11 14V22C11 22.5523 10.5523 23 10 23H2C1.44772 23 1 22.5523 1 22V14ZM3 15V21H9V15H3Z" fill="#f5f5f7"/>
<path fill-rule="evenodd" clip-rule="evenodd" d="M5 18C5 17.4477 5.44772 17 6 17H6.01C6.56228 17 7.01 17.4477 7.01 18C7.01 18.5523 6.56228 19 6.01 19H6C5.44772 19 5 18.5523 5 18Z" fill="#f5f5f7"/>
<path fill-rule="evenodd" clip-rule="evenodd" d="M13 14C13 13.4477 13.4477 13 14 13H14.01C14.5623 13 15.01 13.4477 15.01 14C15.01 14.5523 14.5623 15 14.01 15H14C13.4477 15 13 14.5523 13 14Z" fill="#f5f5f7"/>
<path fill-rule="evenodd" clip-rule="evenodd" d="M17 18C17 17.4477 17.4477 17 18 17H18.01C18.5623 17 19.01 17.4477 19.01 18C19.01 18.5523 18.5623 19 18.01 19H18C17.4477 19 17 18.5523 17 18Z" fill="#f5f5f7"/>
<path fill-rule="evenodd" clip-rule="evenodd" d="M22 17C22.5523 17 23 17.4477 23 18V22C23 22.5523 22.5523 23 22 23H18C17.4477 23 17 22.5523 17 22C17 21.4477 17.4477 21 18 21H21V18C21 17.4477 21.4477 17 22 17Z" fill="#f5f5f7"/>
<path fill-rule="evenodd" clip-rule="evenodd" d="M14 17C14.5523 17 15 17.4477 15 18V22C15 22.5523 14.5523 23 14 23C13.4477 23 13 22.5523 13 22V18C13 17.4477 13.4477 17 14 17Z" fill="#f5f5f7"/>
<path fill-rule="evenodd" clip-rule="evenodd" d="M17 14C17 13.4477 17.4477 13 18 13H22C22.5523 13 23 13.4477 23 14C23 14.5523 22.5523 15 22 15H18C17.4477 15 17 14.5523 17 14Z" fill="#f5f5f7"/>
</svg>
