<svg width="14" height="12" viewBox="0 0 14 12" fill="none" xmlns="http://www.w3.org/2000/svg">
<path d="M5.87157 2.81324C6.29962 1.74612 6.51364 1.21256 6.86136 1.13861C6.95279 1.11916 7.04729 1.11916 7.13872 1.13861C7.48644 1.21256 7.70046 1.74612 8.12851 2.81324C8.37193 3.4201 8.49365 3.72352 8.72139 3.9299C8.78527 3.98779 8.85461 4.03934 8.92844 4.08384C9.19167 4.24249 9.52026 4.27192 10.1775 4.33078C11.29 4.43041 11.8462 4.48023 12.0161 4.79739C12.0513 4.86308 12.0752 4.9342 12.0868 5.00779C12.1432 5.36315 11.7342 5.73519 10.9164 6.47927L10.6893 6.68589C10.3069 7.03376 10.1157 7.2077 10.0051 7.42477C9.93879 7.55498 9.89432 7.69521 9.87348 7.83985C9.83873 8.08098 9.89472 8.33331 10.0067 8.83796L10.0467 9.01827C10.2475 9.92329 10.3479 10.3758 10.2226 10.5982C10.11 10.798 9.90262 10.9259 9.67355 10.9369C9.41854 10.949 9.05921 10.6562 8.34056 10.0707C7.86709 9.68484 7.63035 9.49194 7.36755 9.41658C7.12738 9.34772 6.8727 9.34772 6.63253 9.41658C6.36973 9.49194 6.13299 9.68484 5.65952 10.0707C4.94087 10.6562 4.58154 10.949 4.32653 10.9369C4.09746 10.9259 3.8901 10.798 3.77752 10.5982C3.65219 10.3758 3.75259 9.92329 3.95339 9.01827L3.99339 8.83796C4.10536 8.33331 4.16135 8.08098 4.1266 7.83985C4.10576 7.69521 4.06129 7.55498 3.99495 7.42477C3.88437 7.2077 3.69319 7.03376 3.31083 6.68589L3.08371 6.47927C2.26585 5.73519 1.85692 5.36315 1.91324 5.00779C1.9249 4.9342 1.94882 4.86308 1.984 4.79739C2.15387 4.48023 2.71012 4.43041 3.82263 4.33078C4.47982 4.27192 4.80841 4.24249 5.07164 4.08384C5.14547 4.03934 5.21481 3.98779 5.27869 3.9299C5.50643 3.72352 5.62815 3.4201 5.87157 2.81324Z" fill="#F9D646" stroke="#F9D646" stroke-width="2"/>
</svg>
