<svg width="12" height="12" viewBox="0 0 12 12" fill="none" xmlns="http://www.w3.org/2000/svg">
<path fill-rule="evenodd" clip-rule="evenodd" d="M12 5.99998V6V6.00002C12 7.86377 12 8.79565 11.6955 9.53073C11.2895 10.5108 10.5108 11.2895 9.53073 11.6955C8.79565 12 7.86377 12 6.00002 12H6H4H3.99999C2.11438 12 1.17157 12 0.585786 11.4142C0 10.8284 0 9.88562 0 8V6C0 4.13623 0 3.20435 0.304482 2.46927C0.710458 1.48915 1.48915 0.710458 2.46927 0.304482C3.20435 0 4.13623 0 6 0C7.86377 0 8.79565 0 9.53073 0.304482C10.5108 0.710458 11.2895 1.48915 11.6955 2.46927C12 3.20435 12 4.13623 12 5.99998ZM3 4.66645C3 4.11417 3.44772 3.66645 4 3.66645H8C8.55228 3.66645 9 4.11417 9 4.66645C9 5.21873 8.55228 5.66645 8 5.66645H4C3.44772 5.66645 3 5.21873 3 4.66645ZM3 7.33318C3 6.7809 3.44772 6.33318 4 6.33318H6C6.55228 6.33318 7 6.7809 7 7.33318C7 7.88547 6.55228 8.33318 6 8.33318H4C3.44772 8.33318 3 7.88547 3 7.33318Z" fill="#7161BA"/>
</svg>
