<svg width="16" height="16" viewBox="0 0 16 16" fill="none" xmlns="http://www.w3.org/2000/svg">
<path fill-rule="evenodd" clip-rule="evenodd" d="M7.36712 1.89747C8.69665 1.76844 10.0312 2.09432 11.1611 2.82526C11.3929 2.97526 11.7025 2.9089 11.8525 2.67705C12.0025 2.4452 11.9361 2.13565 11.7043 1.98565C10.3861 1.13285 8.82619 0.751164 7.27052 0.902147C5.71491 1.05313 4.25429 1.7279 3.11816 2.81803C1.9822 3.90799 1.23512 5.35115 0.992392 6.91953C0.749671 8.48784 1.02468 10.0945 1.77509 11.4869C2.5256 12.8795 3.70971 13.9798 5.14282 14.6125C6.57612 15.2452 8.1756 15.3736 9.68877 14.9767C11.2018 14.5799 12.5405 13.6811 13.4954 12.4243C14.4501 11.1676 14.9673 9.62394 14.9673 8.03631C14.9673 7.76017 14.7434 7.53631 14.4673 7.53631C14.1912 7.53631 13.9673 7.76017 13.9673 8.03631C13.9673 9.40726 13.5205 10.7381 12.6991 11.8193C11.8778 12.9004 10.7291 13.67 9.43508 14.0094C8.1412 14.3488 6.7735 14.2393 5.54669 13.6977C4.3197 13.156 3.30189 12.2121 2.65539 11.0125C2.0088 9.81273 1.77107 8.42648 1.98063 7.07247C2.19017 5.71852 2.83468 4.47591 3.81051 3.53959C4.78616 2.60344 6.03754 2.02651 7.36712 1.89747ZM15.0962 3.66411C15.2894 3.46685 15.2862 3.15028 15.0889 2.95704C14.8916 2.7638 14.5751 2.76706 14.3818 2.96433L7.75021 9.73411L5.63862 6.381C5.49147 6.14733 5.18275 6.07719 4.94908 6.22434C4.71542 6.37149 4.64528 6.68021 4.79243 6.91387L7.24133 10.8026C7.32285 10.9321 7.45914 11.0171 7.61125 11.0334C7.76336 11.0496 7.91455 10.9954 8.0216 10.8861L15.0962 3.66411Z" fill="#7FC128"/>
</svg>
